<svg width="734" height="640" viewBox="0 0 734 640" fill="none" xmlns="http://www.w3.org/2000/svg" xmlns:xlink="http://www.w3.org/1999/xlink">
<rect width="734" height="640" fill="url(#pattern0)"/>
<defs>
<pattern id="pattern0" patternContentUnits="objectBoundingBox" width="1" height="1">
<use xlink:href="#image0" transform="translate(-0.00408719) scale(0.0013624 0.0015625)"/>
</pattern>
<image id="image0" width="740" height="640" xlink:href="img/home.jpg"/>
</defs>
<path d="M222 534L442.8 542L512 528.3V550L443.5 569.7L222 558.7V534Z" fill="#3595F6" fill-opacity="0.75"/>
<path d="M223 533V508L443.3 511.3L513 508V528L443.7 541L223 533Z" fill="#3595F6" fill-opacity="0.75"/>
<path d="M223 507V482H444H513V505L445 512L223 507Z" fill="#3595F6" fill-opacity="0.75"/>
<path d="M223 483V458L444.3 454.3L512 461V483H444" fill="#3595F6" fill-opacity="0.75"/>
<path d="M223 457V431L444.5 427.7L513 438.7V460L444 453.3L223 457Z" fill="#3595F6" fill-opacity="0.75"/>
<path d="M222 430V406.3L443 394L514 417V438.3L443 426L222 430Z" fill="#3595F6" fill-opacity="0.75"/>
<path d="M222 408V383L444.2 366.7L514 395.3V416L443.7 394.3L222 408Z" fill="#3595F6" fill-opacity="0.75"/>
<path d="M222 383V358L444.5 337.7L514 374.3V395L442 366.3L222 383Z" fill="#3595F6" fill-opacity="0.75"/>
<path d="M222 357V333L445 308.3L514 352.3V374L444.7 336L222 357Z" fill="#3595F6" fill-opacity="0.75"/>
<path d="M222 332V308L444.5 279.3L514 330.3V351L443.7 308.7L222 332Z" fill="#3595F6" fill-opacity="0.75"/>
<path d="M221 308V284L443.3 251L514 310.3V330L444 279.3L221 308Z" fill="#3595F6" fill-opacity="0.75"/>
<path d="M222 283V259L443.2 224L513 288V309L444.3 250.7L222 283Z" fill="#3595F6" fill-opacity="0.75"/>
<path d="M222 259V234L444.3 196L513 266.3V287L444 223L222 259Z" fill="#3595F6" fill-opacity="0.75"/>
<path d="M222 233V208L442.8 164.3L513 243.3V266L444 192.7L222 233Z" fill="#3595F6" fill-opacity="0.75"/>
<path d="M223 209V184L443 136L513 221V244L442.3 164.7L223 209Z" fill="#3595F6" fill-opacity="0.75"/>
<path d="M222 184V159L441.8 107L513 199.3V222L443.3 135.7L222 184Z" fill="#3595F6" fill-opacity="0.75"/>
<path d="M222 159V133L444 76.3L513 178V199L443.7 107.3L222 159Z" fill="#3595F6" fill-opacity="0.75"/>
</svg>
